<?xml version="1.0"?>
<svg xmlns="http://www.w3.org/2000/svg" xmlns:xlink="http://www.w3.org/1999/xlink" viewBox="0 0 335.99 235.19">
  <defs>
    <style>.cls-1{isolation:isolate;}.cls-2{fill:#e2d4bd;}.cls-10,.cls-3{fill:#ddd;}.cls-3{mix-blend-mode:multiply;}.cls-4{fill:#596374;}.cls-5{fill:#fff;}.cls-6{fill:#ffc941;}.cls-7{fill:#6fb4e4;}.cls-8{fill:#2f3b3b;}.cls-9{fill:#f05751;}.cls-11{fill:#f2f6f7;}.cls-12{opacity:0.4;mix-blend-mode:soft-light;}.cls-13{fill:#8fd5fb;}.cls-14{fill:#d0d6d8;}.cls-15{fill:#9fa3a9;}.cls-16{fill:url(#linear-gradient);}.cls-17{fill:url(#linear-gradient-2);}.cls-18{fill:#f04c49;}.cls-19{fill:#f9f9f9;}.cls-20{fill:#f7f9f8;}</style>
    <linearGradient id="linear-gradient" x1="202.38" y1="200.97" x2="248.21" y2="200.97" gradientUnits="userSpaceOnUse">
      <stop offset="0" stop-color="#fff" stop-opacity="0.4"/>
      <stop offset="0.01" stop-color="#fff" stop-opacity="0.41"/>
      <stop offset="0.11" stop-color="#fff" stop-opacity="0.53"/>
      <stop offset="0.22" stop-color="#fff" stop-opacity="0.63"/>
      <stop offset="0.35" stop-color="#fff" stop-opacity="0.71"/>
      <stop offset="0.49" stop-color="#fff" stop-opacity="0.76"/>
      <stop offset="0.67" stop-color="#fff" stop-opacity="0.79"/>
      <stop offset="1" stop-color="#fff" stop-opacity="0.8"/>
    </linearGradient>
    <linearGradient id="linear-gradient-2" x1="262.3" y1="200.96" x2="308.14" y2="200.96" xlink:href="#linear-gradient"/>
  </defs>
  <title>D_03</title>
  <g class="cls-1">
    <g id="items">
      <g id="notebook">
        <path class="cls-3" d="M280.29,20.06h-4V18h-8.75v2.1H198.57a5.39,5.39,0,0,0-5.38,5.38V150.2a5.4,5.4,0,0,0,5.38,5.38H267.5v1.83h8.74v-1.83h4A10.8,10.8,0,0,0,291,144.82v-114A10.79,10.79,0,0,0,280.29,20.06Z"/>
        <path class="cls-4" d="M275.68,20.06H194a5.39,5.39,0,0,0-5.38,5.38V150.2a5.4,5.4,0,0,0,5.38,5.38h81.72a10.8,10.8,0,0,0,10.76-10.76v-114a10.79,10.79,0,0,0-10.76-10.76h0Z"/>
        <path class="cls-5" d="M272.94,151.51H197.15a5.32,5.32,0,0,1-5.26-5.35V28.43a5.35,5.35,0,0,1,1.54-3.78,5.18,5.18,0,0,1,3.72-1.57h75.79a10.11,10.11,0,0,1,7.24,3.06,10.44,10.44,0,0,1,3,7.36V141.08A10.36,10.36,0,0,1,272.94,151.51ZM197.15,23.63A4.63,4.63,0,0,0,193.82,25a4.81,4.81,0,0,0-1.39,3.4V146.15a4.77,4.77,0,0,0,4.72,4.8h75.79a9.81,9.81,0,0,0,9.71-9.88V33.51a9.9,9.9,0,0,0-2.85-7,9.56,9.56,0,0,0-6.86-2.9H197.15Z"/>
        <rect class="cls-6" x="188.58" y="56.1" width="97.85" height="63.43"/>
        <rect class="cls-7" x="262.9" y="17.96" width="8.74" height="139.45"/>
      </g>
      <g id="pen">
        <path class="cls-3" d="M320.33,31.15h-2.51V30.49c0-1.51-.76-2.72-1.7-2.72h-0.61V20.65h-7.81v7.11c-0.94,0-1.7,1.22-1.7,2.72l0,35.1h0.62l0.28,75.32,4.15,14.16h0c0.09,0.57.42,2.06,0.8,2.06s0.7-1.48.81-2h0l4.16-14.16,0-75.32h0.92l0-32.4v0.2h2.51v32.2h2.41V31.15h-2.41Z"/>
        <polygon class="cls-5" points="311.98 140.92 312.01 51.53 301.68 51.53 302.02 140.91 306.17 155.07 307.82 155.07 311.98 140.92"/>
        <polygon class="cls-8" points="310.63 20.65 310.63 20.65 302.82 20.65 302.82 20.65 302.83 27.97 302.83 27.97 310.63 27.97 310.63 27.97 310.63 20.65"/>
        <path class="cls-9" d="M312.92,65.59l0-35.1c0-1.51-.76-2.72-1.7-2.72h-8.41c-0.94,0-1.7,1.22-1.7,2.72l0,35.1h11.81Z"/>
        <path class="cls-8" d="M306.19,155.07c0.09,0.57.42,2.06,0.8,2.06s0.7-1.48.81-2h-1.61Z"/>
        <polygon class="cls-8" points="315.45 31.15 312.94 31.15 312.94 33.39 315.45 33.39 315.45 65.59 317.85 65.59 317.85 33.39 317.85 31.15 315.45 31.15"/>
      </g>
      <g id="newspaper">
        <path class="cls-3" d="M177.13,21.61V17.37H17.23v117a3.61,3.61,0,0,0,3.6,3.6h0.74v0.64a3.6,3.6,0,0,0,3.59,3.6H177.87a3.61,3.61,0,0,0,3.6-3.6v-117h-4.34Z"/>
        <path class="cls-10" d="M12.54,17.37v117a3.61,3.61,0,0,0,3.6,3.6H168.86a3.6,3.6,0,0,0,3.6-3.6v-117H12.54Z"/>
        <path class="cls-11" d="M16.87,21.61v117a3.6,3.6,0,0,0,3.59,3.6H173.19a3.6,3.6,0,0,0,3.59-3.6v-117H16.87Z"/>
        <g class="cls-12">
          <rect x="27.81" y="56.51" width="143.64" height="1.8"/>
          <rect x="27.81" y="31.64" width="143.64" height="1.8"/>
          <rect x="28.65" y="66.69" width="47.07" height="53.63"/>
          <rect x="136.2" y="66.69" width="35.85" height="25.8"/>
          <rect x="136.2" y="95.37" width="35.85" height="7.34"/>
          <rect x="28.65" y="125.12" width="100.37" height="1.8"/>
          <rect x="28.65" y="130.66" width="100.37" height="1.8"/>
          <rect x="28.65" y="136.2" width="100.37" height="1.8"/>
          <rect x="136.31" y="125.12" width="35.73" height="1.8"/>
          <rect x="136.31" y="130.66" width="35.73" height="1.8"/>
          <rect x="136.31" y="136.2" width="35.73" height="1.8"/>
          <rect x="81.01" y="67.19" width="48.02" height="1.8"/>
          <rect x="81.01" y="72.74" width="48.02" height="1.8"/>
          <rect x="81.01" y="78.28" width="48.02" height="1.8"/>
          <rect x="81.01" y="83.82" width="48.02" height="1.8"/>
          <rect x="81.01" y="89.83" width="48.02" height="1.8"/>
          <rect x="81.01" y="95.37" width="48.02" height="1.8"/>
          <rect x="81.01" y="100.91" width="48.02" height="1.8"/>
          <rect x="81.01" y="106.45" width="48.02" height="1.8"/>
          <rect x="81.01" y="112.99" width="48.02" height="1.8"/>
          <rect x="81.01" y="118.53" width="48.02" height="1.8"/>
          <rect x="136.31" y="106.56" width="35.73" height="1.8"/>
          <rect x="136.31" y="112.86" width="35.73" height="1.8"/>
          <rect x="136.31" y="118.4" width="35.73" height="1.8"/>
          <path d="M35.34,44.06a6.08,6.08,0,0,1,2.38,1,2.54,2.54,0,0,1,1,2.07,2.74,2.74,0,0,1-1.08,2.22,6,6,0,0,1-3.85,1.06h-6V50a2.73,2.73,0,0,0,1.12-.15,0.9,0.9,0,0,0,.41-0.4,3.64,3.64,0,0,0,.12-1.21V40.56a3.68,3.68,0,0,0-.12-1.22,0.86,0.86,0,0,0-.42-0.4,2.81,2.81,0,0,0-1.11-.15V38.47h5.7a8.09,8.09,0,0,1,2.9.36,3,3,0,0,1,1.34,1.09,2.7,2.7,0,0,1,.49,1.54A2.19,2.19,0,0,1,37.53,43,4.47,4.47,0,0,1,35.34,44.06Zm-3.19.45v4.26a0.85,0.85,0,0,0,1,1,2.73,2.73,0,0,0,1.29-.31,2.13,2.13,0,0,0,.91-0.9,2.76,2.76,0,0,0,.32-1.32,2.92,2.92,0,0,0-.39-1.5,2.09,2.09,0,0,0-1.06-.93A5.77,5.77,0,0,0,32.14,44.5Zm0-.68A4.53,4.53,0,0,0,34,43.54a2.09,2.09,0,0,0,.91-0.79,2.84,2.84,0,0,0,0-2.59A2,2,0,0,0,34,39.39a4.73,4.73,0,0,0-1.86-.25v4.69Z"/>
          <path d="M39.75,38.47H45.9v0.33H45.59a2.14,2.14,0,0,0-1,.15,0.82,0.82,0,0,0-.37.4,4.3,4.3,0,0,0-.11,1.27v5.83a5.94,5.94,0,0,0,.24,2.12,2,2,0,0,0,.79.86,2.61,2.61,0,0,0,1.4.34,3,3,0,0,0,1.65-.44,2.66,2.66,0,0,0,1-1.2,7.26,7.26,0,0,0,.34-2.66V40.61a2.81,2.81,0,0,0-.17-1.14A1,1,0,0,0,49,39a2.51,2.51,0,0,0-1.11-.2V38.47H52v0.33H51.76a1.59,1.59,0,0,0-.83.2,1.14,1.14,0,0,0-.48.61,3,3,0,0,0-.11,1v4.52a11.74,11.74,0,0,1-.28,3,3.38,3.38,0,0,1-1.35,1.71,4.87,4.87,0,0,1-2.92.78,5.56,5.56,0,0,1-2.39-.41,3.51,3.51,0,0,1-1.62-1.44,5,5,0,0,1-.47-2.36V40.61a4.12,4.12,0,0,0-.11-1.28,0.86,0.86,0,0,0-.39-0.4,2.39,2.39,0,0,0-1-.14V38.47Z"/>
          <path d="M60.76,38.19l0.1,4H60.5a4.06,4.06,0,0,0-1.25-2.4,3.15,3.15,0,0,0-2.16-.91,2,2,0,0,0-1.42.48,1.46,1.46,0,0,0-.52,1.1,1.33,1.33,0,0,0,.18.7,3,3,0,0,0,.82.82,18.46,18.46,0,0,0,1.9,1,8.46,8.46,0,0,1,2.82,1.94A3.28,3.28,0,0,1,61.59,47a3.38,3.38,0,0,1-1.16,2.57,4.18,4.18,0,0,1-3,1.08,4.73,4.73,0,0,1-1.06-.11,8,8,0,0,1-1.26-.43,1.91,1.91,0,0,0-.69-0.18,0.87,0.87,0,0,0-.48.18,1.23,1.23,0,0,0-.41.54H53.25V46.15h0.33A5.15,5.15,0,0,0,55.06,49a3.48,3.48,0,0,0,2.37,1A2.23,2.23,0,0,0,59,49.5a1.61,1.61,0,0,0,.36-2.06,2.6,2.6,0,0,0-.68-0.75,10.3,10.3,0,0,0-1.61-.93,14,14,0,0,1-2.33-1.36,4.17,4.17,0,0,1-1.09-1.25,3.12,3.12,0,0,1-.38-1.53,3.23,3.23,0,0,1,1-2.42,3.65,3.65,0,0,1,2.63-1,4.47,4.47,0,0,1,1.12.14,5.61,5.61,0,0,1,1,.39,2.36,2.36,0,0,0,.83.29,0.47,0.47,0,0,0,.36-0.14,1.63,1.63,0,0,0,.25-0.68h0.26Z"/>
          <path d="M68.89,50v0.32H62.67V50h0.4a1.65,1.65,0,0,0,.83-0.18,0.8,0.8,0,0,0,.35-0.42,3.62,3.62,0,0,0,.1-1.11V40.5a3.93,3.93,0,0,0-.1-1.14,0.88,0.88,0,0,0-.39-0.4,1.58,1.58,0,0,0-.79-0.17h-0.4V38.47h6.22v0.33H68.5a1.64,1.64,0,0,0-.83.18,0.84,0.84,0,0,0-.36.42,3.63,3.63,0,0,0-.1,1.11v7.83a3.73,3.73,0,0,0,.1,1.14,0.91,0.91,0,0,0,.39.4,1.58,1.58,0,0,0,.79.17h0.39Z"/>
          <path d="M73.78,38.47l5.87,7.38V40.73a2.42,2.42,0,0,0-.31-1.45,1.7,1.7,0,0,0-1.41-.49V38.47h3.93v0.33a3,3,0,0,0-1,.25,1,1,0,0,0-.4.5,3.42,3.42,0,0,0-.15,1.19v9.91H80l-8-9.91V48.3a1.67,1.67,0,0,0,.47,1.39A1.72,1.72,0,0,0,73.5,50h0.28v0.32H69.56V50a1.91,1.91,0,0,0,1.37-.4,1.89,1.89,0,0,0,.39-1.34V39.9l-0.25-.32A2.32,2.32,0,0,0,70.4,39a2,2,0,0,0-.83-0.17V38.47h4.22Z"/>
          <path d="M87.19,39.15V44h0.24a1.88,1.88,0,0,0,1.64-.71,4.38,4.38,0,0,0,.65-2.1H90v6.23H89.71a4.66,4.66,0,0,0-.44-1.67,1.92,1.92,0,0,0-.79-0.87,3,3,0,0,0-1.3-.22V48a4.86,4.86,0,0,0,.08,1.2,0.72,0.72,0,0,0,.31.36,1.46,1.46,0,0,0,.74.14H89a3.84,3.84,0,0,0,4.12-3.12h0.32l-0.54,3.78H82.65V50H83a1.65,1.65,0,0,0,.83-0.18,0.8,0.8,0,0,0,.35-0.42,3.63,3.63,0,0,0,.1-1.11V40.5a6.32,6.32,0,0,0,0-1A0.85,0.85,0,0,0,84,39,1.51,1.51,0,0,0,83,38.79H82.65V38.47h10V42H92.28a4.29,4.29,0,0,0-.72-1.85,2.66,2.66,0,0,0-1.3-.82,7.05,7.05,0,0,0-1.84-.16H87.19Z"/>
          <path d="M102.72,38.19l0.1,4h-0.36a4.06,4.06,0,0,0-1.25-2.4,3.14,3.14,0,0,0-2.15-.91,2,2,0,0,0-1.42.48,1.45,1.45,0,0,0-.52,1.1,1.34,1.34,0,0,0,.18.7,3,3,0,0,0,.82.82,18.4,18.4,0,0,0,1.9,1,8.47,8.47,0,0,1,2.82,1.94,3.28,3.28,0,0,1,.72,2.09,3.38,3.38,0,0,1-1.16,2.57,4.18,4.18,0,0,1-3,1.08,4.73,4.73,0,0,1-1.06-.11,8,8,0,0,1-1.26-.43,1.91,1.91,0,0,0-.69-0.18,0.86,0.86,0,0,0-.48.18,1.23,1.23,0,0,0-.41.54H95.21V46.15h0.32A5.15,5.15,0,0,0,97,49a3.48,3.48,0,0,0,2.37,1A2.23,2.23,0,0,0,101,49.5a1.61,1.61,0,0,0,.36-2.06,2.59,2.59,0,0,0-.68-0.75A10.28,10.28,0,0,0,99,45.76a13.94,13.94,0,0,1-2.33-1.36,4.17,4.17,0,0,1-1.09-1.25,3.11,3.11,0,0,1-.38-1.53,3.23,3.23,0,0,1,1-2.42,3.65,3.65,0,0,1,2.63-1,4.47,4.47,0,0,1,1.12.14,5.62,5.62,0,0,1,1,.39,2.36,2.36,0,0,0,.83.29,0.47,0.47,0,0,0,.36-0.14,1.61,1.61,0,0,0,.25-0.68h0.26Z"/>
          <path d="M112.72,38.19l0.1,4h-0.36a4.06,4.06,0,0,0-1.25-2.4,3.15,3.15,0,0,0-2.16-.91,2,2,0,0,0-1.42.48,1.46,1.46,0,0,0-.52,1.1,1.33,1.33,0,0,0,.18.7,3,3,0,0,0,.82.82,18.31,18.31,0,0,0,1.9,1,8.47,8.47,0,0,1,2.82,1.94,3.28,3.28,0,0,1,.72,2.09,3.38,3.38,0,0,1-1.16,2.57,4.18,4.18,0,0,1-3,1.08,4.73,4.73,0,0,1-1.06-.11,8,8,0,0,1-1.26-.43,1.91,1.91,0,0,0-.69-0.18,0.87,0.87,0,0,0-.48.18,1.23,1.23,0,0,0-.41.54h-0.32V46.15h0.32A5.15,5.15,0,0,0,107,49a3.48,3.48,0,0,0,2.37,1A2.23,2.23,0,0,0,111,49.5a1.61,1.61,0,0,0,.36-2.06,2.6,2.6,0,0,0-.68-0.75,10.27,10.27,0,0,0-1.61-.93,13.94,13.94,0,0,1-2.33-1.36,4.17,4.17,0,0,1-1.09-1.25,3.12,3.12,0,0,1-.38-1.53,3.23,3.23,0,0,1,1-2.42,3.65,3.65,0,0,1,2.63-1,4.47,4.47,0,0,1,1.12.14,5.61,5.61,0,0,1,1,.39,2.36,2.36,0,0,0,.83.29,0.47,0.47,0,0,0,.36-0.14,1.62,1.62,0,0,0,.25-0.68h0.26Z"/>
          <path d="M123.24,38.47l5.87,7.38V40.73a2.43,2.43,0,0,0-.31-1.45,1.7,1.7,0,0,0-1.41-.49V38.47h3.93v0.33a3,3,0,0,0-1,.25,1,1,0,0,0-.4.5,3.41,3.41,0,0,0-.15,1.19v9.91h-0.3l-8-9.91V48.3a1.67,1.67,0,0,0,.47,1.39A1.72,1.72,0,0,0,123,50h0.28v0.32H119V50a1.91,1.91,0,0,0,1.37-.4,1.89,1.89,0,0,0,.39-1.34V39.9l-0.25-.32a2.34,2.34,0,0,0-.67-0.62,2,2,0,0,0-.83-0.17V38.47h4.22Z"/>
          <path d="M136.65,39.15V44h0.24a1.88,1.88,0,0,0,1.64-.71,4.38,4.38,0,0,0,.65-2.1h0.33v6.23h-0.33a4.66,4.66,0,0,0-.44-1.67,1.92,1.92,0,0,0-.79-0.87,3,3,0,0,0-1.3-.22V48a4.85,4.85,0,0,0,.08,1.2,0.72,0.72,0,0,0,.31.36,1.45,1.45,0,0,0,.74.14h0.71a3.84,3.84,0,0,0,4.12-3.12h0.33l-0.54,3.78H132.11V50h0.4a1.65,1.65,0,0,0,.83-0.18,0.8,0.8,0,0,0,.35-0.42,3.63,3.63,0,0,0,.1-1.11V40.5a6.23,6.23,0,0,0,0-1,0.84,0.84,0,0,0-.32-0.47,1.51,1.51,0,0,0-.91-0.25h-0.4V38.47h10V42h-0.33a4.29,4.29,0,0,0-.71-1.85,2.66,2.66,0,0,0-1.3-.82,7,7,0,0,0-1.84-.16h-1.23Z"/>
          <path d="M161.56,38.47v0.33A1.12,1.12,0,0,0,161,39a1.38,1.38,0,0,0-.4.48q-0.05.1-.55,1.36l-3.73,9.82H156L153,43l-3.25,7.67h-0.33l-3.91-9.72a10.44,10.44,0,0,0-.83-1.77,1.08,1.08,0,0,0-.8-0.36V38.47h5.16v0.33a1.45,1.45,0,0,0-.83.19,0.53,0.53,0,0,0-.21.43,5.17,5.17,0,0,0,.43,1.41l2.33,5.77,1.87-4.51-0.49-1.26a9.46,9.46,0,0,0-.62-1.38,1.35,1.35,0,0,0-.5-0.5,1.86,1.86,0,0,0-.84-0.15V38.47H156v0.33a3.18,3.18,0,0,0-.87.1,0.57,0.57,0,0,0-.29.21,0.54,0.54,0,0,0-.11.33,6.06,6.06,0,0,0,.4,1.24l2.17,5.64,1.94-5.1a10.09,10.09,0,0,0,.38-1.08,2.25,2.25,0,0,0,.07-0.54,0.7,0.7,0,0,0-.25-0.57,1.59,1.59,0,0,0-.94-0.22V38.47h3.09Z"/>
          <path d="M170.16,38.19l0.1,4H169.9a4.05,4.05,0,0,0-1.25-2.4,3.16,3.16,0,0,0-2.16-.91,2,2,0,0,0-1.42.48,1.45,1.45,0,0,0-.52,1.1,1.33,1.33,0,0,0,.18.7,3,3,0,0,0,.82.82,18.8,18.8,0,0,0,1.9,1,8.43,8.43,0,0,1,2.82,1.94A3.27,3.27,0,0,1,171,47a3.38,3.38,0,0,1-1.16,2.57,4.19,4.19,0,0,1-3,1.08,4.73,4.73,0,0,1-1.06-.11,8,8,0,0,1-1.26-.43,1.91,1.91,0,0,0-.69-0.18,0.88,0.88,0,0,0-.48.18,1.25,1.25,0,0,0-.41.54h-0.32V46.15H163A5.15,5.15,0,0,0,164.46,49a3.48,3.48,0,0,0,2.37,1,2.23,2.23,0,0,0,1.57-.54,1.61,1.61,0,0,0,.36-2.06,2.6,2.6,0,0,0-.68-0.75,10.21,10.21,0,0,0-1.61-.93,14,14,0,0,1-2.34-1.36A4.16,4.16,0,0,1,163,43.14a3.11,3.11,0,0,1-.38-1.53,3.23,3.23,0,0,1,1-2.42,3.66,3.66,0,0,1,2.63-1,4.46,4.46,0,0,1,1.12.14,5.62,5.62,0,0,1,1,.39,2.38,2.38,0,0,0,.83.29,0.46,0.46,0,0,0,.36-0.14,1.6,1.6,0,0,0,.25-0.68h0.26Z"/>
        </g>
        <rect class="cls-13" x="25.12" y="53.81" width="143.64" height="1.8"/>
        <rect class="cls-13" x="25.12" y="28.95" width="143.64" height="1.8"/>
        <rect class="cls-6" x="25.95" y="64" width="47.07" height="53.63"/>
        <rect class="cls-4" x="133.5" y="64" width="35.85" height="25.8"/>
        <rect class="cls-13" x="133.5" y="92.67" width="35.85" height="7.34"/>
        <rect class="cls-14" x="25.95" y="122.42" width="100.37" height="1.8"/>
        <rect class="cls-14" x="25.95" y="127.96" width="100.37" height="1.8"/>
        <rect class="cls-14" x="25.95" y="133.51" width="100.37" height="1.8"/>
        <rect class="cls-14" x="133.62" y="122.42" width="35.73" height="1.8"/>
        <rect class="cls-14" x="133.62" y="127.96" width="35.73" height="1.8"/>
        <rect class="cls-14" x="133.62" y="133.51" width="35.73" height="1.8"/>
        <rect class="cls-15" x="78.31" y="64.5" width="48.02" height="1.8"/>
        <rect class="cls-15" x="78.31" y="70.04" width="48.02" height="1.8"/>
        <rect class="cls-14" x="78.31" y="75.58" width="48.02" height="1.8"/>
        <rect class="cls-14" x="78.31" y="81.12" width="48.02" height="1.8"/>
        <rect class="cls-14" x="78.31" y="87.13" width="48.02" height="1.8"/>
        <rect class="cls-14" x="78.31" y="92.67" width="48.02" height="1.8"/>
        <rect class="cls-14" x="78.31" y="98.21" width="48.02" height="1.8"/>
        <rect class="cls-14" x="78.31" y="103.75" width="48.02" height="1.8"/>
        <rect class="cls-14" x="78.31" y="110.29" width="48.02" height="1.8"/>
        <rect class="cls-14" x="78.31" y="115.83" width="48.02" height="1.8"/>
        <rect class="cls-15" x="133.62" y="103.86" width="35.73" height="1.8"/>
        <rect class="cls-14" x="133.62" y="110.16" width="35.73" height="1.8"/>
        <rect class="cls-14" x="133.62" y="115.71" width="35.73" height="1.8"/>
        <path class="cls-4" d="M32.64,41.36a6.08,6.08,0,0,1,2.38,1,2.54,2.54,0,0,1,1,2.07,2.74,2.74,0,0,1-1.08,2.22,6,6,0,0,1-3.85,1.06H25V47.35a2.73,2.73,0,0,0,1.12-.15,0.9,0.9,0,0,0,.41-0.4,3.64,3.64,0,0,0,.12-1.21V37.86a3.68,3.68,0,0,0-.12-1.22,0.86,0.86,0,0,0-.42-0.4A2.81,2.81,0,0,0,25,36.09V35.77h5.7a8.09,8.09,0,0,1,2.9.36A3,3,0,0,1,35,37.22a2.7,2.7,0,0,1,.49,1.54,2.19,2.19,0,0,1-.62,1.53A4.47,4.47,0,0,1,32.64,41.36Zm-3.19.45v4.26a0.85,0.85,0,0,0,1,1,2.73,2.73,0,0,0,1.29-.31,2.13,2.13,0,0,0,.91-0.9,2.76,2.76,0,0,0,.32-1.32,2.92,2.92,0,0,0-.39-1.5,2.09,2.09,0,0,0-1.06-.93A5.77,5.77,0,0,0,29.45,41.81Zm0-.68a4.53,4.53,0,0,0,1.84-.28,2.09,2.09,0,0,0,.91-0.79,2.84,2.84,0,0,0,0-2.59,2,2,0,0,0-.89-0.77,4.73,4.73,0,0,0-1.86-.25v4.69Z"/>
        <path class="cls-4" d="M37.06,35.77H43.2v0.33H42.89a2.14,2.14,0,0,0-1,.15,0.82,0.82,0,0,0-.37.4,4.3,4.3,0,0,0-.11,1.27v5.83a5.94,5.94,0,0,0,.24,2.12,2,2,0,0,0,.79.86,2.61,2.61,0,0,0,1.4.34,3,3,0,0,0,1.65-.44,2.66,2.66,0,0,0,1-1.2,7.26,7.26,0,0,0,.34-2.66V37.91a2.81,2.81,0,0,0-.17-1.14,1,1,0,0,0-.42-0.47,2.51,2.51,0,0,0-1.11-.2V35.77h4.12v0.33H49.07a1.59,1.59,0,0,0-.83.2,1.14,1.14,0,0,0-.48.61,3,3,0,0,0-.11,1v4.52a11.74,11.74,0,0,1-.28,3A3.38,3.38,0,0,1,46,47.17a4.87,4.87,0,0,1-2.92.78,5.56,5.56,0,0,1-2.39-.41,3.51,3.51,0,0,1-1.62-1.44,5,5,0,0,1-.47-2.36V37.91a4.12,4.12,0,0,0-.11-1.28,0.86,0.86,0,0,0-.39-0.4,2.39,2.39,0,0,0-1-.14V35.77Z"/>
        <path class="cls-4" d="M58.06,35.5l0.1,4H57.8a4.06,4.06,0,0,0-1.25-2.4,3.15,3.15,0,0,0-2.16-.91,2,2,0,0,0-1.42.48,1.46,1.46,0,0,0-.52,1.1,1.33,1.33,0,0,0,.18.7,3,3,0,0,0,.82.82,18.45,18.45,0,0,0,1.9,1,8.46,8.46,0,0,1,2.82,1.94,3.28,3.28,0,0,1,.72,2.09,3.38,3.38,0,0,1-1.16,2.57,4.18,4.18,0,0,1-3,1.08,4.72,4.72,0,0,1-1.06-.11,8,8,0,0,1-1.26-.43,1.91,1.91,0,0,0-.69-0.18,0.87,0.87,0,0,0-.48.18,1.23,1.23,0,0,0-.41.54H50.55V43.45h0.33a5.15,5.15,0,0,0,1.49,2.89,3.48,3.48,0,0,0,2.37,1,2.23,2.23,0,0,0,1.57-.54,1.61,1.61,0,0,0,.36-2.06A2.6,2.6,0,0,0,56,44a10.31,10.31,0,0,0-1.61-.93A14,14,0,0,1,52,41.7a4.17,4.17,0,0,1-1.09-1.25,3.12,3.12,0,0,1-.38-1.53,3.23,3.23,0,0,1,1-2.42,3.65,3.65,0,0,1,2.63-1,4.48,4.48,0,0,1,1.12.14,5.61,5.61,0,0,1,1,.39,2.36,2.36,0,0,0,.83.29,0.47,0.47,0,0,0,.36-0.14,1.63,1.63,0,0,0,.25-0.68h0.26Z"/>
        <path class="cls-4" d="M66.2,47.35v0.32H60V47.35h0.39a1.65,1.65,0,0,0,.83-0.18,0.8,0.8,0,0,0,.35-0.42,3.62,3.62,0,0,0,.1-1.11V37.81a3.93,3.93,0,0,0-.1-1.14,0.88,0.88,0,0,0-.39-0.4,1.58,1.58,0,0,0-.79-0.17H60V35.77H66.2v0.33H65.8a1.64,1.64,0,0,0-.83.18,0.84,0.84,0,0,0-.36.42,3.63,3.63,0,0,0-.1,1.11v7.83a3.73,3.73,0,0,0,.1,1.14,0.91,0.91,0,0,0,.39.4,1.58,1.58,0,0,0,.79.17H66.2Z"/>
        <path class="cls-4" d="M71.09,35.77L77,43.15V38a2.42,2.42,0,0,0-.31-1.45,1.7,1.7,0,0,0-1.41-.49V35.77h3.93v0.33a3,3,0,0,0-1,.25,1,1,0,0,0-.4.5A3.42,3.42,0,0,0,77.61,38v9.91h-0.3l-8-9.91V45.6A1.67,1.67,0,0,0,69.73,47a1.72,1.72,0,0,0,1.08.36h0.28v0.32H66.87V47.35a1.91,1.91,0,0,0,1.37-.4,1.89,1.89,0,0,0,.39-1.34V37.2l-0.25-.32a2.32,2.32,0,0,0-.67-0.62,2,2,0,0,0-.83-0.17V35.77h4.22Z"/>
        <path class="cls-4" d="M84.49,36.45V41.3h0.24a1.88,1.88,0,0,0,1.64-.71,4.38,4.38,0,0,0,.65-2.1h0.33v6.23H87a4.66,4.66,0,0,0-.44-1.67,1.92,1.92,0,0,0-.79-0.87,3,3,0,0,0-1.3-.22v3.35a4.86,4.86,0,0,0,.08,1.2,0.72,0.72,0,0,0,.31.36,1.46,1.46,0,0,0,.74.14h0.71a3.84,3.84,0,0,0,4.12-3.12h0.32l-0.54,3.78H80V47.35h0.39a1.65,1.65,0,0,0,.83-0.18,0.8,0.8,0,0,0,.35-0.42,3.62,3.62,0,0,0,.1-1.11V37.81a6.32,6.32,0,0,0,0-1,0.85,0.85,0,0,0-.32-0.47,1.51,1.51,0,0,0-.91-0.25H80V35.77h10v3.52H89.58a4.29,4.29,0,0,0-.72-1.85,2.65,2.65,0,0,0-1.3-.82,7.05,7.05,0,0,0-1.84-.16H84.49Z"/>
        <path class="cls-4" d="M100,35.5l0.1,4H99.76a4.06,4.06,0,0,0-1.25-2.4,3.14,3.14,0,0,0-2.15-.91,2,2,0,0,0-1.42.48,1.45,1.45,0,0,0-.52,1.1,1.34,1.34,0,0,0,.18.7,3,3,0,0,0,.82.82,18.41,18.41,0,0,0,1.9,1,8.47,8.47,0,0,1,2.82,1.94,3.28,3.28,0,0,1,.72,2.09,3.38,3.38,0,0,1-1.16,2.57,4.18,4.18,0,0,1-3,1.08,4.73,4.73,0,0,1-1.06-.11,8,8,0,0,1-1.26-.43,1.91,1.91,0,0,0-.69-0.18,0.86,0.86,0,0,0-.48.18,1.23,1.23,0,0,0-.41.54H92.51V43.45h0.32a5.15,5.15,0,0,0,1.49,2.89,3.48,3.48,0,0,0,2.37,1,2.23,2.23,0,0,0,1.57-.54,1.61,1.61,0,0,0,.36-2.06A2.59,2.59,0,0,0,97.95,44a10.29,10.29,0,0,0-1.62-.93A13.93,13.93,0,0,1,94,41.7a4.17,4.17,0,0,1-1.09-1.25,3.11,3.11,0,0,1-.38-1.53,3.23,3.23,0,0,1,1-2.42,3.65,3.65,0,0,1,2.63-1,4.47,4.47,0,0,1,1.12.14,5.62,5.62,0,0,1,1,.39,2.36,2.36,0,0,0,.83.29,0.47,0.47,0,0,0,.36-0.14,1.62,1.62,0,0,0,.25-0.68H100Z"/>
        <path class="cls-4" d="M110,35.5l0.1,4h-0.36a4.06,4.06,0,0,0-1.25-2.4,3.15,3.15,0,0,0-2.16-.91,2,2,0,0,0-1.42.48,1.46,1.46,0,0,0-.52,1.1,1.33,1.33,0,0,0,.18.7,3,3,0,0,0,.82.82,18.32,18.32,0,0,0,1.9,1,8.47,8.47,0,0,1,2.82,1.94,3.28,3.28,0,0,1,.72,2.09,3.38,3.38,0,0,1-1.16,2.57,4.18,4.18,0,0,1-3,1.08,4.72,4.72,0,0,1-1.06-.11,8,8,0,0,1-1.26-.43,1.91,1.91,0,0,0-.69-0.18,0.87,0.87,0,0,0-.48.18,1.23,1.23,0,0,0-.41.54h-0.32V43.45h0.32a5.15,5.15,0,0,0,1.49,2.89,3.48,3.48,0,0,0,2.37,1,2.23,2.23,0,0,0,1.57-.54,1.61,1.61,0,0,0,.36-2.06,2.6,2.6,0,0,0-.68-0.75,10.28,10.28,0,0,0-1.61-.93A13.93,13.93,0,0,1,104,41.7a4.17,4.17,0,0,1-1.09-1.25,3.12,3.12,0,0,1-.38-1.53,3.23,3.23,0,0,1,1-2.42,3.65,3.65,0,0,1,2.63-1,4.47,4.47,0,0,1,1.12.14,5.61,5.61,0,0,1,1,.39,2.36,2.36,0,0,0,.83.29,0.47,0.47,0,0,0,.36-0.14,1.62,1.62,0,0,0,.25-0.68H110Z"/>
        <path class="cls-4" d="M120.55,35.77l5.87,7.38V38a2.43,2.43,0,0,0-.31-1.45,1.7,1.7,0,0,0-1.41-.49V35.77h3.93v0.33a3,3,0,0,0-1,.25,1,1,0,0,0-.4.5,3.41,3.41,0,0,0-.14,1.19v9.91h-0.3l-8-9.91V45.6a1.67,1.67,0,0,0,.47,1.39,1.72,1.72,0,0,0,1.08.36h0.28v0.32h-4.22V47.35a1.47,1.47,0,0,0,1.76-1.75V37.2l-0.25-.32a2.34,2.34,0,0,0-.67-0.62,2,2,0,0,0-.83-0.17V35.77h4.22Z"/>
        <path class="cls-4" d="M133.95,36.45V41.3h0.24a1.88,1.88,0,0,0,1.64-.71,4.38,4.38,0,0,0,.65-2.1h0.33v6.23h-0.33a4.66,4.66,0,0,0-.44-1.67,1.92,1.92,0,0,0-.79-0.87,3,3,0,0,0-1.3-.22v3.35a4.85,4.85,0,0,0,.08,1.2,0.72,0.72,0,0,0,.31.36,1.45,1.45,0,0,0,.74.14h0.71a3.84,3.84,0,0,0,4.12-3.12h0.33l-0.54,3.78H129.41V47.35h0.4a1.65,1.65,0,0,0,.83-0.18,0.8,0.8,0,0,0,.35-0.42,3.63,3.63,0,0,0,.1-1.11V37.81a6.23,6.23,0,0,0,0-1,0.84,0.84,0,0,0-.32-0.47,1.51,1.51,0,0,0-.91-0.25h-0.4V35.77h10v3.52H139a4.29,4.29,0,0,0-.71-1.85,2.66,2.66,0,0,0-1.3-.82,7,7,0,0,0-1.84-.16h-1.23Z"/>
        <path class="cls-4" d="M158.86,35.77v0.33a1.13,1.13,0,0,0-.56.18,1.38,1.38,0,0,0-.4.48q-0.05.1-.55,1.36l-3.73,9.82h-0.34l-2.95-7.67-3.25,7.67h-0.33l-3.91-9.72a10.43,10.43,0,0,0-.83-1.77,1.08,1.08,0,0,0-.8-0.36V35.77h5.16v0.33a1.45,1.45,0,0,0-.83.19,0.53,0.53,0,0,0-.21.43,5.17,5.17,0,0,0,.43,1.41l2.33,5.77L150,39.39l-0.49-1.26a9.46,9.46,0,0,0-.62-1.38,1.35,1.35,0,0,0-.5-0.5,1.86,1.86,0,0,0-.84-0.15V35.77h5.77v0.33a3.18,3.18,0,0,0-.87.1,0.57,0.57,0,0,0-.29.21,0.54,0.54,0,0,0-.11.33,6.06,6.06,0,0,0,.4,1.24l2.17,5.64,1.94-5.1a10.09,10.09,0,0,0,.38-1.08,2.25,2.25,0,0,0,.07-0.54,0.7,0.7,0,0,0-.25-0.57,1.59,1.59,0,0,0-.94-0.22V35.77h3.09Z"/>
        <path class="cls-4" d="M167.46,35.5l0.1,4H167.2a4.06,4.06,0,0,0-1.25-2.4,3.15,3.15,0,0,0-2.16-.91,2,2,0,0,0-1.42.48,1.45,1.45,0,0,0-.52,1.1,1.33,1.33,0,0,0,.18.7,3,3,0,0,0,.82.82,18.8,18.8,0,0,0,1.9,1,8.44,8.44,0,0,1,2.82,1.94,3.27,3.27,0,0,1,.72,2.09,3.38,3.38,0,0,1-1.16,2.57,4.18,4.18,0,0,1-3,1.08,4.73,4.73,0,0,1-1.06-.11,8,8,0,0,1-1.26-.43,1.91,1.91,0,0,0-.69-0.18,0.88,0.88,0,0,0-.48.18,1.25,1.25,0,0,0-.41.54h-0.32V43.45h0.32a5.15,5.15,0,0,0,1.49,2.89,3.48,3.48,0,0,0,2.37,1,2.23,2.23,0,0,0,1.57-.54,1.62,1.62,0,0,0,.36-2.06,2.59,2.59,0,0,0-.68-0.75,10.22,10.22,0,0,0-1.61-.93,14,14,0,0,1-2.34-1.36,4.16,4.16,0,0,1-1.09-1.25,3.11,3.11,0,0,1-.38-1.53,3.23,3.23,0,0,1,1-2.42,3.66,3.66,0,0,1,2.63-1,4.47,4.47,0,0,1,1.12.14,5.57,5.57,0,0,1,1,.39,2.37,2.37,0,0,0,.83.29,0.46,0.46,0,0,0,.36-0.14,1.61,1.61,0,0,0,.25-0.68h0.26Z"/>
      </g>
      <g id="glasses">
        <path class="cls-3" d="M315.4,205.53h0l0.06-.22a0.46,0.46,0,0,0,0-.13c0.27-.85,1.08-3,2.34-3.46v-15.9c-0.3-.05-16.05-2.76-26.4-2.76l-1,0a86.6,86.6,0,0,0-13.7.89h0s-9.63,1.18-15.88,1.21S245,184,245,184s0,0,0,0a88.9,88.9,0,0,0-14.23-.88H230c-9.9,0-24.5,2.48-26,2.73l-0.08,0-0.06.42v15.5c1.29,0.39,2.11,2.61,2.39,3.48l0,0.13c0,0.13.07,0.22,0.07,0.22h0a13.76,13.76,0,0,0,3.73,5.54,11.05,11.05,0,0,0-2.11,1.55h0l-0.18.19,0,0c-4.76,4.8-3.6,6.5-3.56,6.56,0.46,0.73,2.3,1.13,3.88.46h0a3.64,3.64,0,0,0,2.13-2.29l0.16-.79a6.65,6.65,0,0,1,.18-0.85l0-.1h0a5.63,5.63,0,0,1,1.92-2.92c4.6,3,11.09,4.41,18.3,4.4,13,0,23.63-5.31,25.07-15.18,0.05-.16.1-0.35,0.15-0.55l4.88-.76,4.92,0.77c0,0.2.1,0.39,0.15,0.55,1.44,9.86,12.12,15.16,25.07,15.16,7.18,0,13.65-1.45,18.24-4.39a5.63,5.63,0,0,1,1.93,2.92h0l0,0.1a6.32,6.32,0,0,1,.18.85l0.16,0.79a3.63,3.63,0,0,0,2.13,2.29h0c1.58,0.67,3.42.26,3.88-.46,0-.06,1.21-1.77-3.56-6.56l0,0-0.18-.19h0a11,11,0,0,0-2.11-1.55A13.78,13.78,0,0,0,315.4,205.53ZM290.83,186.2c9.62,0,15.22,1.1,18.49,3.21-9.23,1.36-25,3.77-41.37,6.75C268.25,189.46,270.8,186.21,290.83,186.2Zm-30,8.56a3.77,3.77,0,0,1,3.45,2.06l-3.47.65-3.45-.65A3.78,3.78,0,0,1,260.86,194.76Zm-30-8.56c20.05,0,22.59,3.25,22.89,10-16.39-3-32.11-5.38-41.36-6.74C215.68,187.3,221.29,186.2,230.88,186.2ZM208,201a24.53,24.53,0,0,1,.6-6.23c7.75,0.67,24.39,2.24,42.24,4.66-16.18,3.3-31,7-38.57,10.53A11.26,11.26,0,0,1,208,201Zm22.92,14.11c-6.28,0-12-1.12-16.11-3.42,8.6-3.87,23.28-7.11,38.91-9.7C252.6,210.53,242.82,215.12,230.9,215.13Zm59.94,0c-11.92,0-21.71-4.57-22.82-13.09,15.61,2.59,30.27,5.83,38.86,9.69C302.75,214,297.09,215.1,290.84,215.1Zm-20-15.66c17.88-2.42,34.54-4,42.28-4.66a24.6,24.6,0,0,1,.6,6.21,11.26,11.26,0,0,1-4.31,9C301.85,206.41,287,202.74,270.87,199.44Z"/>
        <path class="cls-8" d="M202.34,213h0l-0.18.19,0,0c-4.76,4.8-3.6,6.5-3.56,6.56,0.46,0.73,2.3,1.13,3.88.46h0a3.64,3.64,0,0,0,2.13-2.29l0.16-.79a6.67,6.67,0,0,1,.18-0.85l0-.1h0a5.47,5.47,0,0,1,2.82-3.49c23.58-11.8,104.33-18,104.33-18v-6.19S213.49,202,202.34,213Z"/>
        <path class="cls-8" d="M308.14,213h0l0.18,0.19,0,0c4.76,4.8,3.6,6.5,3.56,6.56-0.46.73-2.3,1.13-3.88,0.46h0a3.63,3.63,0,0,1-2.13-2.29l-0.16-.79a6.36,6.36,0,0,0-.18-0.85l0-.1h0a5.48,5.48,0,0,0-2.82-3.49c-23.58-11.8-104.33-18-104.33-18v-6.19S297,202,308.14,213Z"/>
        <path class="cls-16" d="M248.21,200.69c0,9.57-10.25,14.73-22.91,14.74s-22.92-4.54-22.92-14.11,1.94-14.81,22.9-14.82C249.16,186.5,248.2,191.12,248.21,200.69Z"/>
        <path class="cls-17" d="M285.24,215.41c-12.66,0-22.92-5.14-22.93-14.71s-1-14.18,22.91-14.19c21,0,22.91,5.23,22.92,14.79S297.89,215.41,285.24,215.41Z"/>
        <path class="cls-18" d="M285.84,183.38l-1,0a86.6,86.6,0,0,0-13.7.89h0s-9.63,1.18-15.88,1.21-15.89-1.2-15.89-1.2,0,0,0,0a88.92,88.92,0,0,0-14.23-.88h-0.75c-9.9,0-24.5,2.48-26,2.73l-0.08,0-0.06.42v15.5c1.29,0.39,2.11,2.61,2.39,3.48l0,0.13c0,0.13.07,0.22,0.07,0.22h0c2.83,8,12.69,11.8,24.43,11.8,13,0,23.63-5.31,25.07-15.18,0.61-1.84.67-7.43,5-7.43s4.43,5.59,5,7.43c1.44,9.86,12.12,15.16,25.07,15.16,11.75,0,21.6-3.84,24.42-11.82h0l0.06-.22a0.44,0.44,0,0,0,0-.13c0.27-.85,1.08-3,2.34-3.46v-15.9C311.94,186.09,296.18,183.38,285.84,183.38Zm-37.63,17.31c0,9.57-10.25,14.73-22.91,14.74s-22.92-4.54-22.92-14.11,1.94-14.81,22.9-14.82C249.16,186.5,248.2,191.12,248.21,200.69Zm37,14.71c-12.66,0-22.92-5.14-22.93-14.71s-1-14.18,22.91-14.19c21,0,22.91,5.23,22.92,14.79S297.89,215.41,285.24,215.41Z"/>
      </g>
      <g id="phone">
        <rect class="cls-3" x="201.98" y="82.72" width="46.41" height="89.65" rx="5" ry="5"/>
        <rect class="cls-19" x="197.79" y="82.72" width="46.41" height="89.65" rx="5" ry="5"/>
        <polygon class="cls-5" points="242.57 162.94 242.47 162.94 199.53 162.94 199.43 162.94 199.43 162.84 199.43 90.6 199.43 90.5 199.53 90.5 242.47 90.5 242.57 90.5 242.57 90.6 242.57 162.84 242.57 162.94 242.57 162.94"/>
        <rect class="cls-8" x="199.53" y="90.6" width="42.94" height="72.23"/>
        <circle class="cls-10" cx="221" cy="167.23" r="2.96"/>
        <rect class="cls-18" x="205.26" y="128.15" width="3.89" height="3.89"/>
        <rect class="cls-11" x="211.74" y="128.15" width="25.27" height="3.89"/>
        <rect class="cls-11" x="205.26" y="134.63" width="3.89" height="3.89"/>
        <rect class="cls-6" x="211.74" y="134.63" width="25.27" height="3.89"/>
        <rect class="cls-14" x="205.26" y="141.11" width="3.89" height="3.89"/>
        <rect class="cls-11" x="211.74" y="141.11" width="25.27" height="3.89"/>
        <rect class="cls-7" x="205.26" y="147.59" width="3.89" height="3.89"/>
        <rect class="cls-10" x="211.74" y="147.59" width="25.27" height="3.89"/>
        <path class="cls-13" d="M230.92,111.72a10,10,0,0,0,0-3.11,2.48,2.48,0,0,1-1.81-4.36,10,10,0,0,0-2.2-2.2,2.49,2.49,0,0,1-4.36-1.81,10,10,0,0,0-3.11,0,2.48,2.48,0,0,1-4.36,1.8,10,10,0,0,0-2.2,2.2,2.49,2.49,0,0,1-1.81,4.36,10,10,0,0,0,0,3.11,2.49,2.49,0,0,1,1.81,4.36,10,10,0,0,0,2.2,2.2,2.48,2.48,0,0,1,4.36,1.8,10,10,0,0,0,3.11,0,2.49,2.49,0,0,1,4.36-1.8,10,10,0,0,0,2.2-2.2A2.49,2.49,0,0,1,230.92,111.72Zm-8,3.08a5,5,0,1,1,2.72-6.56A5,5,0,0,1,222.92,114.8Z"/>
      </g>
      <g id="envelope">
        <rect class="cls-3" x="55.25" y="157.2" width="125.52" height="62.6"/>
        <polygon class="cls-15" points="48.92 219.8 176.27 219.8 112.59 184.09 48.92 219.8"/>
        <polygon class="cls-20" points="176.27 157.2 48.92 157.2 112.59 200.28 176.27 157.2"/>
        <polygon class="cls-10" points="48.92 157.2 48.92 219.8 99.51 191.43 48.92 157.2"/>
        <polygon class="cls-10" points="125.67 191.43 176.27 219.8 176.27 157.2 125.67 191.43"/>
      </g>
      <g id="calculator">
        <rect class="cls-3" x="16.73" y="133.3" width="52.52" height="70.64" rx="2.88" ry="2.88"/>
        <rect class="cls-8" x="12.34" y="133.3" width="52.52" height="70.64" rx="2.88" ry="2.88"/>
        <rect class="cls-13" x="15.79" y="137.04" width="45.45" height="13.25" rx="1.87" ry="1.87"/>
        <rect class="cls-5" x="15.79" y="154.06" width="9.41" height="8.45" rx="2" ry="2"/>
        <rect class="cls-5" x="27.8" y="154.06" width="9.41" height="8.45" rx="2" ry="2"/>
        <rect class="cls-5" x="39.81" y="154.06" width="9.41" height="8.45" rx="2" ry="2"/>
        <rect class="cls-9" x="51.83" y="154.06" width="9.41" height="8.45" rx="2" ry="2"/>
        <rect class="cls-5" x="15.79" y="166.44" width="9.41" height="8.45" rx="2" ry="2"/>
        <rect class="cls-5" x="27.8" y="166.44" width="9.41" height="8.45" rx="2" ry="2"/>
        <rect class="cls-5" x="39.81" y="166.44" width="9.41" height="8.45" rx="2" ry="2"/>
        <rect class="cls-15" x="51.83" y="166.44" width="9.41" height="8.45" rx="2" ry="2"/>
        <rect class="cls-5" x="15.79" y="178.81" width="9.41" height="8.45" rx="2" ry="2"/>
        <rect class="cls-5" x="27.8" y="178.81" width="9.41" height="8.45" rx="2" ry="2"/>
        <rect class="cls-5" x="39.81" y="178.81" width="9.41" height="8.45" rx="2" ry="2"/>
        <rect class="cls-5" x="15.79" y="191.18" width="9.41" height="8.45" rx="2" ry="2"/>
        <rect class="cls-5" x="27.8" y="191.18" width="9.41" height="8.45" rx="2" ry="2"/>
        <rect class="cls-5" x="39.81" y="191.18" width="9.41" height="8.45" rx="2" ry="2"/>
        <rect class="cls-6" x="51.83" y="178.79" width="9.41" height="20.83" rx="2" ry="2"/>
      </g>
    </g>
  </g>
</svg>
