<?xml version="1.0" encoding="utf-8"?>
<!-- Generator: Adobe Illustrator 21.0.2, SVG Export Plug-In . SVG Version: 6.00 Build 0)  -->
<svg xmlns="http://www.w3.org/2000/svg" xmlns:xlink="http://www.w3.org/1999/xlink" version="1.1" x="0px" y="0px" viewBox="0 0 1400 980" style="enable-background:new 0 0 1400 980;" xml:space="preserve">
<style type="text/css">
	.st0{fill:#E18B56;}
	.st1{fill:#4A5760;stroke:#000000;stroke-width:2.3413;stroke-miterlimit:10;}
	.st2{fill:#354048;stroke:#000000;stroke-width:2.3413;stroke-miterlimit:10;}
	.st3{fill:#A0633B;stroke:#965D36;stroke-width:2;stroke-miterlimit:10;}
	.st4{fill:#D8D9DA;stroke:#000000;stroke-width:2.3413;stroke-miterlimit:10;}
	.st5{fill:#FFFFFF;stroke:#000000;stroke-width:2.3413;stroke-miterlimit:10;}
	.st6{fill:#49789B;stroke:#000000;stroke-width:2.288;stroke-miterlimit:10;}
	.st7{fill:#FFFFFF;}
	.st8{fill:#FF626B;stroke:#000000;stroke-width:2;stroke-miterlimit:10;}
	.st9{fill:#3D3D3D;}
	.st10{fill:#FF5F25;stroke:#000000;stroke-miterlimit:10;}
	.st11{fill:#38A355;stroke:#000000;stroke-miterlimit:10;}
	.st12{fill:#FF3C25;stroke:#000000;stroke-miterlimit:10;}
	.st13{fill:#37A355;}
	.st14{fill:#FF3C25;stroke:#000000;stroke-linecap:round;stroke-linejoin:round;stroke-miterlimit:10;}
	.st15{fill:#FFFFFF;stroke:#000000;stroke-miterlimit:10;}
	.st16{fill:#FFFFFF;stroke:#000000;stroke-width:2.288;stroke-miterlimit:10;}
	.st17{fill:none;stroke:#000000;stroke-width:2.288;stroke-miterlimit:10;}
	.st18{fill:#C7EAFB;stroke:#000000;stroke-width:2.3413;stroke-miterlimit:10;}
	.st19{fill:#7D8B91;stroke:#000000;stroke-miterlimit:10;}
	.st20{fill:#A4B5BD;stroke:#000000;stroke-miterlimit:10;}
	.st21{fill:none;stroke:#000000;stroke-miterlimit:10;}
	.st22{fill:#BBF3EE;stroke:#000000;stroke-width:2;stroke-miterlimit:10;}
	.st23{fill:#808F00;stroke:#000000;stroke-width:2;stroke-miterlimit:10;}
	.st24{fill:#FFFFFF;stroke:#000000;stroke-width:2;stroke-miterlimit:10;}
	.st25{fill:#7ABCC7;stroke:#000000;stroke-width:2;stroke-miterlimit:10;}
	.st26{fill:#FF3C25;stroke:#000000;stroke-width:2;stroke-miterlimit:10;}
	.st27{fill:#FFA822;stroke:#000000;stroke-width:2;stroke-miterlimit:10;}
	.st28{opacity:0.48;fill:#A5A7AA;}
</style>
<g id="Layer_2">
	
	
</g>
<g id="Layer_2_1_">
	<rect x="26.2" y="672.1" class="st1" width="1347.5" height="48.4"/>
	<rect x="52.2" y="720.3" class="st2" width="1295.6" height="207.6"/>
	<g>
		<rect x="52.2" y="720.3" class="st1" width="400.6" height="129.8"/>
		<circle class="st2" cx="251.3" cy="785.2" r="21.8"/>
	</g>
	<g>
		<rect x="52.2" y="850.1" class="st1" width="400.6" height="129.8"/>
		<circle class="st2" cx="251.3" cy="915.1" r="21.8"/>
	</g>
	<g>
		<rect x="947.3" y="720.3" class="st1" width="400.6" height="259.6"/>
	</g>
	<rect x="994.3" y="893.2" class="st2" width="30.1" height="86.8"/>
</g>
<g id="Layer_3">
	<g>
		<g>
			<line class="st3" x1="950" y1="215.3" x2="889.5" y2="215.3"/>
			<line class="st3" x1="884.6" y1="215.3" x2="878" y2="215.3"/>
			<line class="st3" x1="873.1" y1="215.3" x2="869.8" y2="215.3"/>
			<line class="st3" x1="970.1" y1="215.3" x2="963.5" y2="215.3"/>
			<line class="st3" x1="958.6" y1="215.3" x2="955.3" y2="215.3"/>
			<line class="st3" x1="950" y1="207.3" x2="881.3" y2="207.3"/>
		</g>
		<g>
			<line class="st3" x1="580.5" y1="82.5" x2="520.1" y2="82.5"/>
			<line class="st3" x1="515.1" y1="82.5" x2="508.6" y2="82.5"/>
			<line class="st3" x1="503.6" y1="82.5" x2="500.3" y2="82.5"/>
			<line class="st3" x1="600.6" y1="82.5" x2="594" y2="82.5"/>
			<line class="st3" x1="589.1" y1="82.5" x2="585.8" y2="82.5"/>
			<line class="st3" x1="580.5" y1="74.4" x2="511.8" y2="74.4"/>
		</g>
		<g>
			<line class="st3" x1="899.5" y1="178.6" x2="909.8" y2="188.9"/>
			<line class="st3" x1="909.8" y1="178.6" x2="899.5" y2="188.9"/>
		</g>
		<g>
			<line class="st3" x1="475.7" y1="74.4" x2="486.1" y2="84.8"/>
			<line class="st3" x1="486.1" y1="74.4" x2="475.7" y2="84.8"/>
		</g>
		<g>
			<line class="st3" x1="1063.3" y1="338.7" x2="1052.9" y2="328.4"/>
			<line class="st3" x1="1052.9" y1="338.7" x2="1063.3" y2="328.4"/>
		</g>
		<g>
			<line class="st3" x1="114.9" y1="620.5" x2="54.4" y2="620.5"/>
			<line class="st3" x1="135" y1="620.5" x2="128.4" y2="620.5"/>
			<line class="st3" x1="123.5" y1="620.5" x2="120.2" y2="620.5"/>
			<line class="st3" x1="535.3" y1="224.8" x2="474.8" y2="224.8"/>
			<line class="st3" x1="555.4" y1="224.8" x2="548.8" y2="224.8"/>
			<line class="st3" x1="543.9" y1="224.8" x2="540.6" y2="224.8"/>
			<line class="st3" x1="114.9" y1="612.5" x2="46.2" y2="612.5"/>
		</g>
		<g>
			<line class="st3" x1="10.1" y1="612.5" x2="20.4" y2="622.8"/>
			<line class="st3" x1="20.4" y1="612.5" x2="10.1" y2="622.8"/>
		</g>
		<line class="st3" x1="1157.1" y1="534.8" x2="1096.6" y2="534.8"/>
		<line class="st3" x1="1177.2" y1="534.8" x2="1170.6" y2="534.8"/>
		<line class="st3" x1="1165.6" y1="534.8" x2="1162.4" y2="534.8"/>
		<line class="st3" x1="1157.1" y1="526.8" x2="1088.4" y2="526.8"/>
		<g>
			<line class="st3" x1="1052.3" y1="526.8" x2="1062.6" y2="537.1"/>
			<line class="st3" x1="1062.6" y1="526.8" x2="1052.3" y2="537.1"/>
		</g>
		<line class="st3" x1="363.1" y1="333.5" x2="302.6" y2="333.5"/>
		<line class="st3" x1="383.2" y1="333.5" x2="376.6" y2="333.5"/>
		<line class="st3" x1="371.7" y1="333.5" x2="368.4" y2="333.5"/>
		<line class="st3" x1="363.1" y1="325.5" x2="294.4" y2="325.5"/>
		<g>
			<line class="st3" x1="343.5" y1="492" x2="353.8" y2="502.3"/>
			<line class="st3" x1="353.8" y1="492" x2="343.5" y2="502.3"/>
		</g>
		<g>
			<line class="st3" x1="1138.1" y1="615.3" x2="1148.4" y2="625.6"/>
			<line class="st3" x1="1148.4" y1="615.3" x2="1138.1" y2="625.6"/>
		</g>
		<g>
			<line class="st3" x1="530.2" y1="178.6" x2="540.5" y2="188.9"/>
			<line class="st3" x1="540.5" y1="178.6" x2="530.2" y2="188.9"/>
		</g>
		<circle class="st3" cx="114.9" cy="538.7" r="5.2"/>
		<circle class="st3" cx="374.4" cy="619.3" r="5.2"/>
		<g>
			<line class="st3" x1="840.3" y1="75.2" x2="850.6" y2="85.5"/>
			<line class="st3" x1="850.6" y1="75.2" x2="840.3" y2="85.5"/>
		</g>
		<g>
			<line class="st3" x1="317.7" y1="614.2" x2="328" y2="624.5"/>
			<line class="st3" x1="328" y1="614.2" x2="317.7" y2="624.5"/>
		</g>
		<circle class="st3" cx="1252.9" cy="578.1" r="5.2"/>
		<g>
			<line class="st3" x1="1196.2" y1="573" x2="1206.6" y2="583.3"/>
			<line class="st3" x1="1206.6" y1="573" x2="1196.2" y2="583.3"/>
		</g>
		<circle class="st3" cx="845.5" cy="110.6" r="5.2"/>
		<g>
			<line class="st3" x1="1011.6" y1="625.8" x2="1011.6" y2="632.4"/>
			<line class="st3" x1="1011.6" y1="637.3" x2="1011.6" y2="640.6"/>
		</g>
		<circle class="st3" cx="982.1" cy="610.2" r="5.2"/>
	</g>
</g>
<g id="Layer_4">
	<g>
		<rect x="655.7" y="583.4" class="st4" width="88.6" height="88.6"/>
		<rect x="572.3" y="661.8" class="st4" width="255.4" height="10.2"/>
		<path class="st2" d="M981.8,278.6c0-3.1-2.5-5.5-5.5-5.5H423.7c-3.1,0-5.5,2.5-5.5,5.5v254.5h563.6V278.6z"/>
		<path class="st5" d="M418.2,533.1v32.7c0,9.8,7.9,17.7,17.7,17.7h528.3c9.8,0,17.7-7.9,17.7-17.7v-32.7H418.2z"/>
		<rect x="429.9" y="286.6" class="st6" width="540.2" height="245.3"/>
	</g>
	<g>
		<rect x="554.5" y="329.5" class="st7" width="290.9" height="182.5"/>
		<path class="st8" d="M845.5,329.4H554.5v-6.5c0-4.9,4-8.9,8.9-8.9h273.1c4.9,0,8.9,4,8.9,8.9V329.4z"/>
		<rect x="565.7" y="354.9" class="st9" width="268.6" height="9"/>
		<rect x="565.7" y="381.8" class="st9" width="268.6" height="9"/>
		<rect x="565.7" y="408.7" class="st9" width="268.6" height="9"/>
		<rect x="565.7" y="435.6" class="st9" width="268.6" height="9"/>
		<rect x="565.7" y="462.5" class="st9" width="153.3" height="9"/>
	</g>
</g>
<g id="Layer_7">
	<g>
		<rect x="52.9" y="42.4" class="st2" width="328.2" height="182.7"/>
		<rect x="60.3" y="49.8" class="st5" width="313.3" height="167.8"/>
		<polygon class="st10" points="169,154.4 152.1,154.4 109.1,154.4 127.6,209.4 152.1,209.4 169,209.4 193.5,209.4 212,154.4   "/>
		<path class="st11" d="M236.3,84.2c-4.2-5.2-12.6-1.9-17.6,0c-8.9,3.3-17.1,8.1-24.6,13.9c-3,2.3-5.8,4.8-8.5,7.5    c3.7-7.5,12.9-24.4,4.7-31.1c-8.4-6.9-17.6,13.6-19.7,18.5c-2.4,5.7-4.7,11.7-6.5,17.8c0.8-23.1-0.7-51.3-14.4-46    c-11.4,4.4-7.6,21.6-6.3,30.5c1.3,8.4,3,16.7,5.2,24.9c0,0,0,0,0,0c-3.9-6.3-8.4-12.3-13.5-17.9c-5.8-6.4-12.3-11.9-19.1-17.1    c-3.6-2.7-8.5-6.8-12.2-1.5c-8,11.4,8.6,31.8,15.5,39.8c5,5.8,10.8,11.2,17.1,15.6c5.2,3.6,11.5,8.1,18,9.3    c0.1,0.1,0.2,0.2,0.4,0.3c0.6,1.8,2.3,3.2,4.6,2.4c19.4-7,38.7-16.2,55.1-28.8c6.9-5.3,13.2-11.6,17.8-19.1    C235.1,98.5,240.6,89.5,236.3,84.2z"/>
		<rect x="101.9" y="136" class="st12" width="116.4" height="19.5"/>
		<polygon class="st10" points="288.9,154.4 277.6,154.4 248.9,154.4 261.2,209.4 277.6,209.4 288.9,209.4 305.3,209.4 317.7,154.4       "/>
		<rect x="244.4" y="134.8" class="st12" width="77.8" height="19.5"/>
		<g>
			<g>
				<path d="M282.9,134.6c-0.7-11-1.2-21.4,0.8-32.4c2-10.7,5.8-20.9,10.9-30.5c0.2-0.3-0.3-0.6-0.5-0.3      c-11,17.9-16.8,42.5-11.8,63.3C282.4,135,283,135,282.9,134.6L282.9,134.6z"/>
			</g>
		</g>
		<g>
			<path class="st13" d="M281.9,114.7c3-6.3,7.2-12.1,12.3-17c1.4-1.3,2.9-2.6,4.7-3c0.5-0.1,1-0.1,1.3,0.3c0.2,0.3,0.1,0.7,0,1.1     c-3.7,11.8-10.9,22.2-18,32.4"/>
			<g>
				<path d="M282,114.8c2.5-4.5,5.2-8.8,8.6-12.7c1.3-1.5,2.8-3.5,4.4-4.6c0.7-0.8,1.6-1.1,2.7-1c2-1.1,2.6-1,1.9,0.3      c0.2,0.9-2.2,5.6-2.2,5.7c-4,9.2-9.8,17.5-15.5,25.8c-0.3,0.4,0.4,0.8,0.6,0.4c4.8-6.8,9.5-13.6,13.3-21      c1-1.9,6.3-10.9,4.7-12.9c-4.2-5.3-17.6,17.4-18.7,19.9C281.7,114.8,281.9,114.9,282,114.8L282,114.8z"/>
			</g>
		</g>
		<g>
			<path class="st13" d="M281.6,121.5c-1.9-4.9-4-9.8-6.5-14.4c-0.5-0.9-0.9-1.8-1.7-2.3c-0.8-0.6-2-0.7-2.7-0.1     c-0.7,0.6-0.7,1.7-0.7,2.6c0.6,9.6,4.7,19,11.5,25.9"/>
			<g>
				<path d="M281.9,121.5c-1.6-4.8-3.7-12.1-7.2-15.9c-1.6-1.7-3.9-2.5-4.9,0.2c-1.5,3.7,1.3,10.9,2.6,14.3c2,5.1,5.1,9.6,8.8,13.6      c0.4,0.5,1.1-0.2,0.7-0.7c-5.3-5.6-9.1-12.5-10.7-20.1c-0.3-1.3-0.5-2.6-0.6-3.9c-0.7-1.8,0-2.3,2.1-1.6c3.1,0,2.9,1.4,4.2,3.9      c1.7,3.4,3.1,6.9,4.6,10.4C281.5,121.9,281.9,121.7,281.9,121.5L281.9,121.5z"/>
			</g>
		</g>
		<path class="st14" d="M287.8,73.7c-2.6-2.4-2.9-6.9-0.5-9.6c0.6-0.7,1.5-1.3,2.4-1.4c2-0.1,3.4,2,3.4,4c0.1,2-0.7,3.9-0.9,5.8    c1.2-2.7,2.8-5.5,5.4-6.9c2.6-1.4,6.4-1,7.9,1.6c1.4,2.4,0.3,5.6-1.8,7.4c-2.1,1.8-5,2.4-7.7,2.9c2.2-0.2,4.5-0.2,6.5,0.7    c2,0.9,3.8,2.7,4.1,4.8c0.5,3.7-3.6,6.9-7.3,6.2s-6.3-4.4-6.6-8.1c0.5,3.8-0.1,7.8-1.8,11.2c-0.6,1.2-1.6,2.5-3,2.5    c-0.7,0-1.4-0.4-2-0.8c-2-1.6-3.2-4.3-3-6.9s1.7-5.1,3.9-6.4c-2.4,1.8-5.4,3.1-8.5,2.9c-3-0.1-6.1-1.8-7.4-4.5s-0.4-6.5,2.2-8    c1.2-0.7,2.7-0.9,4.1-0.9c3.6,0,7.2,1.3,10.1,3.6"/>
		<path class="st15" d="M291.7,76.2c-0.7-1.7-2.8-2.7-4.5-2c-1.7,0.7-2.6,2.9-1.8,4.6c0.3,0.6,0.8,1.1,1.4,1.5    c1.8,1.2,4.6,1.1,6.1-0.4c1.6-1.6,1.6-4.5,0-5.9c-0.8-0.8-2.2-1-3.1-0.3"/>
	</g>
</g>
<g id="Layer_5">
	<g>
		<circle class="st2" cx="700" cy="143.8" r="84.1"/>
		<circle class="st16" cx="700" cy="143.8" r="71.6"/>
		<line class="st17" x1="700" y1="91.5" x2="700" y2="143.8"/>
		<line class="st17" x1="736" y1="143.8" x2="698.7" y2="143.8"/>
		<line class="st17" x1="700" y1="91.5" x2="700" y2="143.8"/>
	</g>
</g>
<g id="Layer_6">
	<g>
		<g>
			<rect x="1018.5" y="42.4" class="st2" width="328.2" height="182.7"/>
			<rect x="1026" y="49.8" class="st18" width="313.3" height="167.8"/>
		</g>
		<polygon class="st19" points="1320,217.6 1338.8,217.6 1338.8,145.9 1315.7,132.2 1291.2,143.9 1268,134.3 1182.7,184.1     1143.2,217.6   "/>
		<polygon class="st20" points="1194.6,217.6 1339.3,217.6 1175.6,124.3 1157.8,138.3 1119,115.2 1086.3,130.9 1055.3,118.1     1026.2,135.3 1026.2,217.6   "/>
		<polygon class="st15" points="1038.5,128.1 1048.6,126.6 1052.7,137.1 1061.2,129.3 1074.7,131.8 1071,126.6 1077.7,127.3     1055.3,118.1   "/>
		<polygon class="st15" points="1119,115.2 1105.4,121.7 1111,123.7 1112.2,134.9 1120.8,126.3 1129.1,129.5 1127.6,123.9     1135.6,125.1   "/>
		<polygon class="st15" points="1175.6,124.3 1166.3,131.5 1171,130.5 1175.6,135.9 1178.4,132.2 1190.6,132.9   "/>
		<polygon class="st15" points="1268,134.3 1254.3,142.3 1263.5,140 1267.3,143.2 1269.8,140.2 1275.1,143.2 1275.1,139.7     1283.1,140.6   "/>
		<polygon class="st15" points="1315.7,132.2 1300.4,139.5 1308.1,138 1309,140.8 1314.2,138.7 1317.7,141.9 1318.6,138.7     1325.4,141.4 1324.9,139.5 1328.3,139.7   "/>
		<path class="st21" d="M1163.6,133.9c-33.8,23.7-67.3,47.8-100.6,72.3"/>
		<path class="st21" d="M1084.2,130.3c13.9,6.3,37.4,16.9,51.3,23.1"/>
		<circle class="st5" cx="1217.2" cy="95.5" r="15.9"/>
	</g>
</g>
<g id="Layer_8">
	<g>
		<rect y="436.7" class="st2" width="307" height="21.2"/>
		<rect x="49.3" y="305.7" class="st22" width="32.2" height="131.1"/>
		<polygon class="st23" points="100.4,278.4 81.5,278.4 81.5,436.7 100.4,436.7 119.3,436.7 119.3,278.4   "/>
		<rect x="146" y="266.5" class="st24" width="32.2" height="170.3"/>
		<rect x="178.2" y="278.4" class="st25" width="38.8" height="158.3"/>
		<rect x="217" y="290.7" class="st26" width="32.2" height="146"/>
		<rect x="49.3" y="305.7" class="st25" width="32.2" height="35.7"/>
		<circle class="st24" cx="65.4" cy="418.8" r="7.1"/>
		<rect x="81.5" y="290.7" class="st8" width="37.8" height="45"/>
		<rect x="81.5" y="398.6" class="st8" width="37.8" height="16.6"/>
		<rect x="146" y="290.7" class="st27" width="32.2" height="40.8"/>
	</g>
	<polygon class="st28" points="285.3,578.1 0,468 0,457.9 285.3,457.9  "/>
</g>
<g id="Layer_10">
	<g>
		<rect x="1093" y="436.7" class="st2" width="307" height="21.2"/>
		<polygon class="st28" points="1400,578.1 1114.7,457.9 1400,457.9   "/>
		<rect x="1154.6" y="334.5" class="st22" width="159.3" height="32.2"/>
		<polygon class="st23" points="1177.6,385.6 1177.6,404.5 1370,404.5 1370,385.6 1370,366.7 1177.6,366.7   "/>
		<rect x="1148.1" y="404.5" class="st24" width="207" height="32.2"/>
		<rect x="1154.6" y="334.5" class="st25" width="43.4" height="32.2"/>
		<ellipse class="st24" cx="1292" cy="350.6" rx="7" ry="7.1"/>
		<rect x="1192.6" y="366.7" class="st8" width="54.7" height="37.8"/>
		<rect x="1323.6" y="366.7" class="st8" width="20.1" height="37.8"/>
		<rect x="1177.6" y="404.5" class="st27" width="49.6" height="32.2"/>
	</g>
</g>
</svg>
