<?xml version="1.0" encoding="utf-8"?>
<!-- Generator: Adobe Illustrator 16.0.0, SVG Export Plug-In . SVG Version: 6.00 Build 0)  -->
<!DOCTYPE svg PUBLIC "-//W3C//DTD SVG 1.1//EN" "http://www.w3.org/Graphics/SVG/1.1/DTD/svg11.dtd">
<svg xmlns="http://www.w3.org/2000/svg" xmlns:xlink="http://www.w3.org/1999/xlink" version="1.1" id="Layer_1" x="0px" y="0px" width="1400px" height="1568px" viewBox="0 0 1400 1568" enable-background="new 0 0 1400 1568" xml:space="preserve">
<g>
	
	<path fill="#00C270" d="M1179.2,1234.2c0,42.3-34.3,76.5-76.5,76.5H332.5c-42.3,0-76.5-34.3-76.5-76.5V167.1   c0-42.3,34.3-76.5,76.5-76.5h770.1c42.3,0,76.5,34.3,76.5,76.5V1234.2z"/>
	<rect x="117" y="796.8" fill="#FFFFFF" width="392.3" height="608.1"/>
	<rect x="167" y="746.7" fill="#EBEBEB" width="392.3" height="608.1"/>
	<rect x="217" y="696.7" fill="#FFFFFF" width="392.3" height="608.1"/>
	<g>
		<rect x="1014.8" y="875.3" fill="#E0D6A4" width="313.2" height="405.6"/>
		<polygon fill="#D1C899" points="1311.1,875.3 1311.1,1264.1 1014.8,1264.1 1014.8,1280.9 1311.1,1280.9 1311.1,1280.9     1327.9,1280.9 1327.9,1280.9 1327.9,1264.1 1327.9,875.3   "/>
		<path fill="#70673F" d="M1014.8,820.6v54.6h313.2v-54.6H1014.8z M1221,852.7h-99.3c-4.1,0-7.4-3.3-7.4-7.4s3.3-7.4,7.4-7.4h99.3    c4.1,0,7.4,3.3,7.4,7.4S1225.1,852.7,1221,852.7z"/>
		<rect x="1055.5" y="907.9" fill="#D1C899" width="231.7" height="14.2"/>
		<rect x="1055.5" y="957.5" fill="#D1C899" width="231.7" height="14.2"/>
		<rect x="1055.5" y="1007.2" fill="#D1C899" width="231.7" height="14.2"/>
		<rect x="1055.5" y="1056.8" fill="#D1C899" width="231.7" height="14.2"/>
		<rect x="1055.5" y="1106.5" fill="#D1C899" width="231.7" height="14.2"/>
		<rect x="1055.5" y="1156.1" fill="#D1C899" width="231.7" height="14.2"/>
	</g>
	<path fill="#58595B" d="M966.3,1376.1c0,23.1-18.8,41.9-41.9,41.9H430.8c-23.1,0-41.9-18.8-41.9-41.9V643.4   c0-23.1,18.8-41.9,41.9-41.9h493.5c23.1,0,41.9,18.8,41.9,41.9V1376.1z"/>
	<path fill="#545557" d="M1034.9,1008.9c0,23.1-18.8,41.9-41.9,41.9H362.1c-23.1,0-41.9-18.8-41.9-41.9V753.3   c0-23.1,18.8-41.9,41.9-41.9H993c23.1,0,41.9,18.8,41.9,41.9V1008.9z"/>
	<path fill="#4A4B4D" d="M911.5,1059.2c0,4.7-3.8,8.4-8.4,8.4H452.1c-4.7,0-8.4-3.8-8.4-8.4l0,0c0-4.7,3.8-8.4,8.4-8.4H903   C907.7,1050.8,911.5,1054.6,911.5,1059.2L911.5,1059.2z"/>
	<path fill="#4A4B4D" d="M911.5,1198.9c0,4.7-3.8,8.4-8.4,8.4H452.1c-4.7,0-8.4-3.8-8.4-8.4l0,0c0-4.7,3.8-8.4,8.4-8.4H903   C907.7,1190.5,911.5,1194.2,911.5,1198.9L911.5,1198.9z"/>
	<g>
		<path fill="#F1F2F2" d="M1106.2,323.3v52.4c0,53.6,43.4,97,97,97c53.6,0,97-43.4,97-97v-52.4H1106.2z"/>
	</g>
	<g>
		<path fill="#FFFFFF" d="M912.2,159.6H538.5c-53.6,0-97,43.4-97,97v-21.8v313.7h470.7V234.8v21.8c0-53.6,43.4-97,97-97H912.2z"/>
	</g>
	<g>
		<path fill="#D6D6D6" d="M1106.2,375.7v-52.4v-66.7c0-53.6-43.4-97-97-97c-53.6,0-97,43.4-97,97v216.1H999h107.2h97    C1149.7,472.7,1106.2,429.3,1106.2,375.7z"/>
	</g>
	<g>
		<path fill="#F1F2F2" d="M500,418.8v45.2h353.8v-45.2h-36.6v-38.6h36.6v-48.9h-36.6v-38.5h36.6V244H500v48.9h144v38.5H500v48.9    h70.9v38.6H500z M636.1,380.3h65.2v38.6h-65.2V380.3z"/>
	</g>
	<rect x="329.5" y="547.9" fill="#58595B" width="696.1" height="111.7"/>
	<g>
		<rect x="469.3" y="1084.6" fill="#808285" width="16.6" height="33.8"/>
		<rect x="469.3" y="1050.8" fill="#717375" width="16.6" height="33.8"/>
		<circle fill="#E0D07F" cx="477.7" cy="1146.6" r="34"/>
		<path fill="#FFEE91" d="M502.1,1146.6c0,13.5-11,24.5-24.5,24.5s-24.5-11-24.5-24.5c0-13.5,10.9-24.5,24.5-24.5    S502.1,1133.1,502.1,1146.6z"/>
	</g>
	<g>
		<rect x="549.3" y="1084.6" fill="#808285" width="16.6" height="33.8"/>
		<rect x="549.3" y="1050.8" fill="#717375" width="16.6" height="33.8"/>
		<circle fill="#E0D07F" cx="557.6" cy="1146.6" r="34"/>
		<path fill="#FFEE91" d="M582.1,1146.6c0,13.5-11,24.5-24.5,24.5s-24.5-11-24.5-24.5c0-13.5,11-24.5,24.5-24.5    S582.1,1133.1,582.1,1146.6z"/>
	</g>
	<g>
		<rect x="629.3" y="1084.6" fill="#808285" width="16.6" height="33.8"/>
		<rect x="629.3" y="1050.8" fill="#717375" width="16.6" height="33.8"/>
		<circle fill="#E0D07F" cx="637.6" cy="1146.6" r="34"/>
		<path fill="#FFEE91" d="M662.1,1146.6c0,13.5-11,24.5-24.5,24.5s-24.5-11-24.5-24.5c0-13.5,10.9-24.5,24.5-24.5    S662.1,1133.1,662.1,1146.6z"/>
	</g>
	<g>
		<rect x="709.3" y="1084.6" fill="#808285" width="16.6" height="33.8"/>
		<rect x="709.3" y="1050.8" fill="#717375" width="16.6" height="33.8"/>
		<circle fill="#E0D07F" cx="717.6" cy="1146.6" r="34"/>
		<path fill="#FFEE91" d="M742,1146.6c0,13.5-11,24.5-24.5,24.5s-24.5-11-24.5-24.5c0-13.5,11-24.5,24.5-24.5S742,1133.1,742,1146.6    z"/>
	</g>
	<g>
		<rect x="789.2" y="1084.6" fill="#808285" width="16.6" height="33.8"/>
		<rect x="789.2" y="1050.8" fill="#717375" width="16.6" height="33.8"/>
		<circle fill="#E0D07F" cx="797.5" cy="1146.6" r="34"/>
		<path fill="#FFEE91" d="M822,1146.6c0,13.5-11,24.5-24.5,24.5s-24.5-11-24.5-24.5c0-13.5,11-24.5,24.5-24.5S822,1133.1,822,1146.6    z"/>
	</g>
	<g>
		<rect x="869.2" y="1084.6" fill="#808285" width="16.6" height="33.8"/>
		<rect x="869.2" y="1050.8" fill="#717375" width="16.6" height="33.8"/>
		<circle fill="#E0D07F" cx="877.5" cy="1146.6" r="34"/>
		<path fill="#FFEE91" d="M902,1146.6c0,13.5-11,24.5-24.5,24.5s-24.5-11-24.5-24.5c0-13.5,11-24.5,24.5-24.5S902,1133.1,902,1146.6    z"/>
	</g>
	<g>
		<rect x="509.3" y="1224.2" fill="#808285" width="16.6" height="33.8"/>
		<rect x="509.3" y="1190.5" fill="#717375" width="16.6" height="33.8"/>
		<path fill="#E0D07F" d="M551.6,1286.3c0,18.8-15.2,34-34,34c-18.8,0-34-15.2-34-34c0-18.8,15.2-34,34-34    C536.4,1252.3,551.6,1267.5,551.6,1286.3z"/>
		<path fill="#FFEE91" d="M542.1,1286.3c0,13.5-11,24.5-24.5,24.5c-13.5,0-24.5-11-24.5-24.5c0-13.5,11-24.5,24.5-24.5    C531.2,1261.8,542.1,1272.8,542.1,1286.3z"/>
	</g>
	<g>
		<rect x="589.3" y="1224.2" fill="#808285" width="16.6" height="33.8"/>
		<rect x="589.3" y="1190.5" fill="#717375" width="16.6" height="33.8"/>
		<path fill="#E0D07F" d="M631.6,1286.3c0,18.8-15.2,34-34,34c-18.8,0-34-15.2-34-34c0-18.8,15.2-34,34-34    C616.4,1252.3,631.6,1267.5,631.6,1286.3z"/>
		<path fill="#FFEE91" d="M622.1,1286.3c0,13.5-11,24.5-24.5,24.5s-24.5-11-24.5-24.5c0-13.5,11-24.5,24.5-24.5    S622.1,1272.8,622.1,1286.3z"/>
	</g>
	<g>
		<rect x="669.3" y="1224.2" fill="#808285" width="16.6" height="33.8"/>
		<rect x="669.3" y="1190.5" fill="#717375" width="16.6" height="33.8"/>
		<path fill="#E0D07F" d="M711.6,1286.3c0,18.8-15.2,34-34,34c-18.8,0-34-15.2-34-34c0-18.8,15.2-34,34-34    C696.4,1252.3,711.6,1267.5,711.6,1286.3z"/>
		<path fill="#FFEE91" d="M702.1,1286.3c0,13.5-11,24.5-24.5,24.5s-24.5-11-24.5-24.5c0-13.5,11-24.5,24.5-24.5    S702.1,1272.8,702.1,1286.3z"/>
	</g>
	<g>
		<rect x="749.2" y="1224.2" fill="#808285" width="16.6" height="33.8"/>
		<rect x="749.2" y="1190.5" fill="#717375" width="16.6" height="33.8"/>
		<path fill="#E0D07F" d="M791.5,1286.3c0,18.8-15.2,34-34,34c-18.8,0-34-15.2-34-34c0-18.8,15.2-34,34-34    C776.3,1252.3,791.5,1267.5,791.5,1286.3z"/>
		<path fill="#FFEE91" d="M782,1286.3c0,13.5-11,24.5-24.5,24.5s-24.5-11-24.5-24.5c0-13.5,11-24.5,24.5-24.5S782,1272.8,782,1286.3    z"/>
	</g>
	<g>
		<rect x="829.2" y="1224.2" fill="#808285" width="16.6" height="33.8"/>
		<rect x="829.2" y="1190.5" fill="#717375" width="16.6" height="33.8"/>
		<path fill="#E0D07F" d="M871.5,1286.3c0,18.8-15.2,34-34,34c-18.8,0-34-15.2-34-34c0-18.8,15.2-34,34-34    C856.3,1252.3,871.5,1267.5,871.5,1286.3z"/>
		<path fill="#FFEE91" d="M862,1286.3c0,13.5-11,24.5-24.5,24.5s-24.5-11-24.5-24.5c0-13.5,11-24.5,24.5-24.5S862,1272.8,862,1286.3    z"/>
	</g>
	<g>
		<path fill="#FFFFFF" d="M835.5,905.3c-1,0-1.9-0.3-2.8-0.8c-2.5-1.5-3.2-4.8-1.7-7.2c8.4-13.6,15.1-28.3,19.8-43.7    c0.8-2.8,3.7-4.3,6.5-3.5c2.8,0.8,4.3,3.8,3.5,6.5c-5,16.3-12,31.8-21,46.2C838.9,904.5,837.2,905.3,835.5,905.3z"/>
	</g>
	<rect x="548" y="1350.3" fill="#4A4B4D" width="259.2" height="39"/>
	<g>
		<rect x="554" y="1356.9" fill="#FFEE91" width="247.1" height="20.9"/>
		<rect x="554" y="1377.8" fill="#E0D07F" width="247.1" height="5.3"/>
	</g>
	<path fill="#4A4B4D" d="M435.6,711.4c-3.3,16-5,32.6-5,49.6c0,136.4,110.6,246.9,246.9,246.9c136.4,0,246.9-110.6,246.9-246.9   c0-17-1.7-33.6-5-49.6H435.6z"/>
	<g>
		<g>
			<path fill="#9E9E9E" d="M834.4,841.7L737.7,777c0.2,0.6,0.5,1.2,0.7,1.8c2.1,6.5,3.2,13.2,3.2,20c0,35.6-29,64.6-64.6,64.6     c-35.6,0-64.6-29-64.6-64.6c0-6.7,1.1-13.5,3.2-20c0.2-0.6,0.5-1.2,0.7-1.8l-96.7,64.7c-1.9,1.3-2.8,3.7-2.1,5.9     c21.6,70.6,85.7,118.1,159.6,118.1c73.9,0,138-47.5,159.6-118.1C837.2,845.4,836.4,843,834.4,841.7z"/>
			<path fill="#8F8F8F" d="M738.4,778.8c-0.2-0.6-0.5-1.2-0.7-1.8c-9.2-25.7-33.4-42.8-60.8-42.8s-51.6,17.1-60.8,42.8     c-0.2,0.6-0.5,1.2-0.7,1.8c-2.1,6.5-3.2,13.3-3.2,20c0,35.6,29,64.6,64.6,64.6c35.6,0,64.6-29,64.6-64.6     C741.6,792.1,740.5,785.3,738.4,778.8z"/>
		</g>
	</g>
	<g>
		<path fill="#FFFFFF" d="M725.5,984.8c-2.3,0-4.4-1.5-5.1-3.9c-0.7-2.8,0.9-5.7,3.7-6.4c25.6-6.8,48.8-18.7,69-35.5    c2.2-1.8,5.5-1.5,7.4,0.7c1.8,2.2,1.5,5.5-0.7,7.4c-21.4,17.8-46,30.4-73,37.6C726.4,984.8,726,984.8,725.5,984.8z"/>
	</g>
	<g>
		<path fill="#FFFFFF" d="M511.3,903.6c-1.6,0-3.1-0.7-4.1-2c-1.8-2.3-1.3-5.6,0.9-7.3l79.8-61.5c2.3-1.8,5.6-1.3,7.3,0.9    c1.8,2.3,1.3,5.6-0.9,7.3l-79.8,61.5C513.6,903.3,512.4,903.6,511.3,903.6z"/>
	</g>
	<g>
		<path fill="#FFFFFF" d="M532.5,935.3c-1.4,0-2.7-0.5-3.7-1.6c-2-2.1-2-5.4,0.1-7.4l50.3-49.2c2.1-2,5.4-2,7.4,0.1    c2,2.1,2,5.4-0.1,7.4l-50.3,49.2C535.2,934.8,533.8,935.3,532.5,935.3z"/>
	</g>
	<rect x="388.9" y="659.1" fill="#404142" width="577.4" height="52.3"/>
	<rect x="441.5" y="519.9" fill="#F1F2F2" width="472.4" height="28.6"/>
	<circle fill="#9E9E9E" cx="430.8" cy="603.8" r="71"/>
	<circle fill="#9E9E9E" cx="924.3" cy="603.8" r="71"/>
	<circle fill="#4A4B4D" cx="924.4" cy="603.8" r="55.3"/>
	<circle fill="#4A4B4D" cx="430.8" cy="603.8" r="55.3"/>
	<path fill="#8F8F8F" d="M455.4,628.1c-4.1,4.1-10.7,4.1-14.8,0l-34.3-34.3c-4.1-4.1-4.1-10.7,0-14.8l0,0c4.1-4.1,10.7-4.1,14.8,0   l34.3,34.3C459.4,617.3,459.4,624,455.4,628.1L455.4,628.1z"/>
	<path fill="#8F8F8F" d="M924.4,638.5c-5.8,0-10.5-4.7-10.5-10.5v-48.4c0-5.8,4.7-10.5,10.5-10.5l0,0c5.8,0,10.5,4.7,10.5,10.5   l0,48.5C934.8,633.8,930.1,638.5,924.4,638.5L924.4,638.5z"/>
	<g>
		<g>
			<polygon fill="#F07E70" points="1139,1436.8 1263.2,1036.5 1238,1028.7 1113.9,1429    "/>
			
				<rect x="953.8" y="1211.8" transform="matrix(-0.2962 0.9551 -0.9551 -0.2962 2677.9775 476.6939)" fill="#FF8677" width="419.1" height="26.4"/>
		</g>
		<g>
			<polygon fill="#76787A" points="1256.9,967.2 1242.9,985.8 1257.9,988.4 1257.8,987.3 1249.2,984.6    "/>
			<polygon fill="#808285" points="1249.2,984.6 1257.8,987.3 1256.9,967.2    "/>
		</g>
		<polygon fill="#FFFFFF" points="1238,1028.7 1263.2,1036.5 1261.1,988.9 1243,985.8 1217.4,1022.3   "/>
		<polygon fill="#EBEBEB" points="1243,985.8 1239.7,985.2 1212.9,1020.9 1217.4,1022.3   "/>
		<path fill="#FFEE91" d="M1131,1462.7l1.3-4.1l-50.3-15.6l-1.3,4.1c-4.3,13.9,3.5,28.7,17.4,33    C1111.9,1484.4,1126.7,1476.6,1131,1462.7z"/>
		<path fill="#F5E48B" d="M1094.8,1464.5c-2.8-0.9-4.3-3.8-3.5-6.6c0.9-2.8,3.8-4.3,6.6-3.5c2.8,0.9,4.3,3.8,3.5,6.6    C1100.5,1463.8,1097.6,1465.3,1094.8,1464.5z"/>
		<g>
			<path fill="#FFFFFF" d="M1132,1458.5c2,0.6,4.1-0.5,4.8-2.5l4.5-14.5c0.6-2-0.5-4.1-2.5-4.8l-45.5-14.1l-6.8,21.8L1132,1458.5z"/>
			<path fill="#EBEBEB" d="M1093.3,1422.6l-4.3-1.3c-2-0.6-4.1,0.5-4.8,2.5l-4.5,14.5c-0.6,2,0.5,4.2,2.5,4.8l4.3,1.3L1093.3,1422.6     z"/>
		</g>
		<polygon opacity="9.999999e-002" fill="#414042" points="1139,1436.8 1139.7,1434.8 1090.5,1415.3 1088.7,1421.2   "/>
	</g>
	<circle fill="#FFFFFF" cx="1179.2" cy="656" r="108"/>
	<path fill="#FF8677" d="M1233.8,622.3l-3.8-3.7c-1.7-1.7-3.5-3.1-5.5-4.4c-3.5-2.2-7.4-3.7-11.4-4.4c-9.9-1.8-20.5,1.2-28.1,8.8   l-5.9,5.9l-5.9-5.9c-7.6-7.6-18.2-10.6-28.1-8.8c-4,0.7-7.9,2.2-11.4,4.4c-1.9,1.2-3.8,2.7-5.5,4.4l-3.7,3.7   c-12.4,12.4-12.4,32.6,0,45l5.9,5.9l48.7,48.7l48.7-48.7l5.9-5.9C1246.3,654.8,1246.3,634.7,1233.8,622.3z"/>
	<path fill="#FFEE91" d="M374.3,259.4H99c-12.4,0-22.5,10.1-22.5,22.5v149.8c0,12.4,10.1,22.5,22.5,22.5h150.8l32.9,57l32.9-57h58.6   c12.4,0,22.5-10.1,22.5-22.5V281.9C396.7,269.5,386.6,259.4,374.3,259.4z"/>
	<path fill="#FF8677" d="M156.7,357.6c0,12.5-10.1,22.6-22.6,22.6c-12.5,0-22.6-10.1-22.6-22.6c0-12.5,10.1-22.6,22.6-22.6   C146.6,334.9,156.7,345.1,156.7,357.6z"/>
	<path fill="#FF8677" d="M259.3,357.6c0,12.5-10.1,22.6-22.6,22.6c-12.5,0-22.6-10.1-22.6-22.6c0-12.5,10.1-22.6,22.6-22.6   C249.1,334.9,259.3,345.1,259.3,357.6z"/>
	<path fill="#FF8677" d="M361.8,357.6c0,12.5-10.1,22.6-22.6,22.6s-22.6-10.1-22.6-22.6c0-12.5,10.1-22.6,22.6-22.6   S361.8,345.1,361.8,357.6z"/>
	<rect x="117" y="538.4" fill="#00C270" width="178.8" height="43"/>
	<rect x="117" y="621.6" fill="#00C270" width="178.8" height="43"/>
	<rect x="1123.5" y="133.2" fill="#00C270" width="178.8" height="43"/>
	<rect x="1123.5" y="216.4" fill="#00C270" width="178.8" height="43"/>
</g>
</svg>
